<?xml version="1.0"?>
<svg version="1.1" xmlns="http://www.w3.org/2000/svg" xmlns:xlink="http://www.w3.org/1999/xlink" width="1792" height="1792">
    <desc iVinci="yes" version="4.5" gridStep="20" showGrid="no" snapToGrid="no" codePlatform="0"/>
    <g id="Layer1" opacity="1">
        <g id="Shape1">
            <desc shapeID="1" type="0" basicInfo-basicType="0" basicInfo-roundedRectRadius="12" basicInfo-polygonSides="6" basicInfo-starPoints="5" bounding="rect(-820.5,-821.5,1641,1643)" text="" font-familyName="" font-pixelSize="20" font-bold="0" font-underline="0" font-alignment="1" strokeStyle="0" markerStart="0" markerEnd="0" shadowEnabled="0" shadowOffsetX="0" shadowOffsetY="2" shadowBlur="4" shadowOpacity="160" blurEnabled="0" blurRadius="4" transform="matrix(1,0,0,1,915.075,896)" pers-center="0,0" pers-size="0,0" pers-start="0,0" pers-end="0,0" locked="0" mesh="" flag=""/>
            <path id="shapePath1" d="M457.575,1418.5 C457.575,1401.17 451.241,1386.17 438.575,1373.5 C425.908,1360.83 410.908,1354.5 393.575,1354.5 C376.241,1354.5 361.241,1360.83 348.575,1373.5 C335.908,1386.17 329.575,1401.17 329.575,1418.5 C329.575,1435.83 335.908,1450.83 348.575,1463.5 C361.241,1476.17 376.241,1482.5 393.575,1482.5 C410.908,1482.5 425.908,1476.17 438.575,1463.5 C451.241,1450.83 457.575,1435.83 457.575,1418.5 M1101.57,998.5 L419.575,1680.5 C394.908,1705.17 364.908,1717.5 329.575,1717.5 C294.908,1717.5 264.575,1705.17 238.575,1680.5 L132.575,1572.5 C107.241,1548.5 94.5746,1518.5 94.5746,1482.5 C94.5746,1447.17 107.241,1416.83 132.575,1391.5 L813.575,710.5 C839.575,775.833 877.741,833.667 928.075,884 C978.408,934.333 1036.24,972.5 1101.57,998.5 M1735.57,563.5 C1735.57,589.5 1727.91,624.833 1712.57,669.5 C1681.24,758.833 1626.41,831.333 1548.07,887 C1469.74,942.667 1383.57,970.5 1289.57,970.5 C1166.24,970.5 1060.74,926.667 973.075,839 C885.408,751.333 841.575,645.833 841.575,522.5 C841.575,399.167 885.408,293.667 973.075,206 C1060.74,118.333 1166.24,74.5 1289.57,74.5 C1328.24,74.5 1368.74,80 1411.07,91 C1453.41,102 1489.24,117.5 1518.57,137.5 C1529.24,144.833 1534.57,154.167 1534.57,165.5 C1534.57,176.833 1529.24,186.167 1518.57,193.5 L1225.57,362.5 L1225.57,586.5 L1418.57,693.5 C1421.91,691.5 1448.24,675.333 1497.57,645 C1546.91,614.667 1592.07,587.667 1633.07,564 C1674.07,540.333 1697.57,528.5 1703.57,528.5 C1713.57,528.5 1721.41,531.833 1727.07,538.5 C1732.74,545.167 1735.57,553.5 1735.57,563.5 Z" style="stroke:none;fill-rule:nonzero;fill:#ffffff;fill-opacity:1;"/>
        </g>
    </g>
</svg>
